# xmcd
#
# Track frame offsets:
#	150
#	11989
#	25160
#	39951
#	53654
#	66017
#	78567
#	93096
#	104938
#	120013
#	133198
#	147385
#	159456
#	170879
#	186036
#	196637
#	209288
#	222288
#	234391
#	248280
#	262073
#	277537
#	290747
#	305180
#	317490
#
# Disc length: 4427 seconds
#
# Revision: 2
# Processed by: cddbd v1.5.2PL0 Copyright (c) Steve Scherf et al.
# Submitted via: dBpowerAMP V4.0
#
DISCID=62114919
DTITLE=Various Artist - BD Jazz - Best Of Christmas
DYEAR=2007
DGENRE=Jazz
TTITLE0=Ella Fitzgerald and Bing Crosb -  Rudolph The Red-Nosed Reindeer
TTITLE1=Dean Martin - The Christmas Blues
TTITLE2=King Nat Cole - The Christmas Song
TTITLE3=Benny Goodman - Winter Weather
TTITLE4=The Andrews Sisters - Winter Wonderland
TTITLE5=Louis Armstrong - Zat You Santa Claus
TTITLE6=Jimmy Rushing - Good Morning Blues
TTITLE7=Johnny McAfee - When Winter Comes
TTITLE8=Woody Herman - Let It Snow Let It Snow Let It Snow
TTITLE9=Louis Armstrong - Cool Yule
TTITLE10=Ella Fitzgerald - Santa Claus Got Stuck In My Chimney
TTITLE11=Clyde McPhatter - White Christmas
TTITLE12=Bull Moose Jackson - I'll Be Home For Christmas
TTITLE13=Sonny Parker - Merry Christmas Baby
TTITLE14=The Cadillacs - Rudolph The Red-Nosed Reindeer
TTITLE15=Julia Lee - Christmas Spirit
TTITLE16=Louis Armstrong - Christmas In New Orleans
TTITLE17=Benny Goodman - Jingle Bells
TTITLE18=Doris Day - The Christmas Song (Merry Christmas To You)
TTITLE19=Bing Crosby and The Andrews Sisters - Here Comes Santa Claus
TTITLE20=Eartha Kitt - Santa Baby
TTITLE21=The Andrews Sisters - Jing-A-Ling, Jing-A-Ling
TTITLE22=The Ravens - White Christmas
TTITLE23=Louis Armstrong - Christmas Night In Harlem
TTITLE24=Lightnin Hopkins - Happy New Year
EXTD=
EXTT0=
EXTT1=
EXTT2=
EXTT3=
EXTT4=
EXTT5=
EXTT6=
EXTT7=
EXTT8=
EXTT9=
EXTT10=
EXTT11=
EXTT12=
EXTT13=
EXTT14=
EXTT15=
EXTT16=
EXTT17=
EXTT18=
EXTT19=
EXTT20=
EXTT21=
EXTT22=
EXTT23=
EXTT24=
PLAYORDER=
